<?xml version="1.0" standalone="no"?>
<!DOCTYPE svg PUBLIC "-//W3C//DTD SVG 20010904//EN"
 "http://www.w3.org/TR/2001/REC-SVG-20010904/DTD/svg10.dtd">
<svg version="1.0" xmlns="http://www.w3.org/2000/svg"
 width="500.000000pt" height="500.000000pt" viewBox="0 0 500.000000 500.000000"
 preserveAspectRatio="xMidYMid meet">

<g transform="translate(0.000000,500.000000) scale(0.100000,-0.100000)"
fill="#000000" stroke="none">
<path d="M1713 3751 c-253 -87 -552 -496 -959 -1313 -77 -153 -144 -278 -151
-278 -18 0 -16 31 5 60 13 20 16 42 15 105 -5 148 65 460 181 815 133 404 151
475 122 499 -17 15 -44 9 -51 -11 -2 -7 -49 -152 -104 -323 -55 -170 -111
-348 -124 -395 -65 -226 -135 -608 -144 -791 -7 -155 -2 -192 34 -208 22 -10
29 -9 51 11 14 13 38 52 54 88 16 36 33 74 38 85 5 11 46 99 90 195 340 736
677 1228 933 1362 97 51 155 28 144 -56 -13 -93 -96 -287 -169 -394 -90 -133
-240 -289 -461 -482 -114 -98 -140 -130 -130 -157 9 -23 51 -14 131 26 116 58
145 65 269 66 109 0 112 0 150 -31 47 -38 72 -100 56 -137 -7 -14 -64 -65
-128 -113 -382 -286 -675 -591 -721 -751 -15 -51 -15 -58 1 -99 38 -100 145
-123 271 -60 127 64 329 275 443 464 103 170 159 292 220 481 30 93 0 192 -82
268 -49 45 -89 60 -182 67 -66 4 -95 13 -95 28 0 5 48 59 107 121 171 179 252
297 335 487 94 216 87 350 -20 380 -50 14 -68 12 -129 -9z m-63 -1454 c0 -48
-162 -343 -252 -457 -120 -154 -229 -255 -329 -305 -59 -30 -88 -31 -123 -4
-49 39 -27 107 76 230 119 145 383 394 543 513 69 51 85 55 85 23z"/>
<path d="M2652 3654 c-145 -150 -325 -514 -472 -956 -29 -87 -68 -184 -87
-215 -33 -55 -34 -60 -22 -95 10 -32 8 -56 -14 -170 -36 -178 -54 -413 -38
-490 21 -97 72 -150 132 -135 13 4 49 28 79 54 47 42 110 123 380 491 34 45
65 82 69 82 5 0 11 -18 15 -39 7 -45 44 -81 83 -81 42 0 153 74 270 179 62 56
123 115 135 131 28 38 61 60 77 51 9 -6 8 -33 -4 -116 -19 -136 -18 -178 3
-239 20 -56 62 -86 123 -86 50 0 159 57 247 130 41 33 78 60 83 60 5 0 9 -24
9 -52 1 -209 113 -296 301 -235 148 47 416 247 565 421 85 99 96 123 69 146
-21 17 -31 9 -215 -166 -188 -178 -257 -232 -378 -292 -116 -57 -180 -63 -217
-20 -28 33 -51 132 -39 167 7 18 24 29 74 45 148 48 274 165 330 305 28 73 26
106 -9 142 -42 41 -96 42 -174 2 -61 -31 -117 -86 -188 -188 -103 -147 -351
-364 -435 -381 -25 -5 -37 -1 -54 16 -22 22 -22 29 -18 139 4 88 14 153 43
269 30 122 35 155 25 167 -25 30 -50 14 -156 -102 -299 -326 -464 -451 -464
-350 0 54 47 207 91 295 41 83 43 107 14 118 -25 10 -62 -33 -108 -126 -25
-50 -117 -188 -224 -335 -268 -367 -364 -488 -396 -499 -47 -17 -52 -1 -51
162 2 159 14 277 45 442 37 196 71 277 216 510 223 359 403 735 403 840 0 27
-30 60 -54 60 -5 0 -34 -25 -64 -56z m1478 -1049 c38 -46 -75 -201 -192 -261
-35 -18 -36 -8 -3 36 22 29 25 41 19 78 -6 39 -3 47 22 74 32 34 111 88 130
88 6 0 17 -7 24 -15z"/>
</g>
</svg>
